<?xml version="1.0" encoding="utf-8"?>
<!-- Generator: Adobe Illustrator 23.1.0, SVG Export Plug-In . SVG Version: 6.00 Build 0)  -->
<svg version="1.1" xmlns="http://www.w3.org/2000/svg" xmlns:xlink="http://www.w3.org/1999/xlink" x="0px" y="0px"
	 viewBox="0 0 500 500" style="enable-background:new 0 0 500 500;" xml:space="preserve">
<style type="text/css">
	.st0{display:none;}
	.st1{display:inline;fill:#FFFFFF;}
	.st2{fill:#E5E5E5;}
	.st3{fill:#FD8471;}
	.st4{fill:#18285D;}
	.st5{fill:#001350;}
	.st6{fill:#26246C;}
	.st7{fill:#3B3E7D;}
	.st8{fill:#FFFFFF;}
	.st9{fill:#586197;}
	.st10{opacity:0.3;fill:#18285D;}
	.st11{fill:#3C80FB;}
	.st12{fill:#6EB4FA;}
	.st13{fill:#0041C6;}
	.st14{fill:#2E60E0;}
	.st15{fill:#FCB38F;}
	.st16{fill:#579DFF;}
	.st17{fill:#F25339;}
	.st18{clip-path:url(#SVGID_2_);fill:#001350;}
	.st19{clip-path:url(#SVGID_2_);}
	.st20{display:inline;}
	.st21{fill:#112129;}
</style>
<g id="BACKGROUND" class="st0">
	<rect class="st1" width="500" height="500"/>
</g>
<g id="OBJECTS">
	<g>
		<path class="st2" d="M152.9,358.5c-16.7,2.1-33.5-2.9-46-14.1c-10.4-9.4-16.9-22.2-0.8-35.4c38.4-31.6,35.4-57.1,17.6-75.2
			c-17.7-18.1-62.7-54.6-35-87c27.7-32.4,102,3,113.2-34.5c11.2-37.5,24.7-67.1,59.8-75.2c35.1-8.1,76.7,7.9,84.7,44.5
			c7.9,36.3-37.3,34.2,5.5,92.7c25.2,34.4-16.7,108.1-54.5,93c-37.9-15.1-84.2,8.1-85.8,50.8C210.6,346.3,176.2,355.5,152.9,358.5z"
			/>
		<path class="st2" d="M387.7,145.6c2.3-3.8,2.9-8.5,1.7-12.7c-1.3-4.3-4.5-8.7-12.4-8.9c-15.8-0.3-14.6,30.8-6.5,35.5
			C376.4,162.8,384,151.9,387.7,145.6z"/>
		<path class="st2" d="M181,97.4c2.6-3.7,3.6-8.2,2.6-12.6c-0.9-4.4-3.9-9-11.7-9.8c-15.7-1.5-16.9,29.6-9.1,34.9
			C168.4,113.7,176.8,103.3,181,97.4z"/>
		<path class="st2" d="M57.7,198.9c0.4,2.7,1.9,5.2,4.2,6.8c2.3,1.6,5.6,2.4,9.5-0.7c7.7-6.1-3.8-19.7-9.5-18.7
			C57.7,187.1,57,194.4,57.7,198.9z"/>
		<path class="st2" d="M368.8,186.3c-0.6,2.7,0,5.6,1.6,7.9c1.6,2.3,4.4,4.2,9.1,2.7c9.4-3,2.5-21.1-3.3-22.2
			C372.1,173.8,369.8,181.8,368.8,186.3z"/>
	</g>
	<path class="st3" d="M357.5,211.5c0-0.1,0-0.2-0.1-0.3C357.4,211.4,357.4,211.5,357.5,211.5z"/>
	<g>
		
			<ellipse transform="matrix(0.9092 -0.4163 0.4163 0.9092 -137.4932 133.8372)" class="st2" cx="238.1" cy="382.2" rx="100.2" ry="27"/>
		<g>
			<g>
				<g>
					<path class="st4" d="M306.8,91.6L294,98.1l-1.5,0.8l-1.6-16l0,0c0,0,0,0,0,0L306.8,91.6z"/>
					<path class="st5" d="M294,88.6v252.2c0,2.4-1.3,4.6-3.4,5.8l-114.7,65.8c-4.5,2.6-10.1-0.7-10.1-5.8V157.5c0-2.7,1.1-5.2,2.9-7
						c0.6-0.6,1.3-1.1,2-1.5l113.2-66.1c2.4-1.4,5-1.1,7.1,0.2c0,0,0,0,0,0C292.8,84.2,294,86.2,294,88.6z"/>
					<polygon class="st4" points="170.9,413.2 188.8,418.1 188.8,401.7 					"/>
					<path class="st6" d="M306.8,91.6L294,98.1v7.4L192.8,164l-24-13.5c0.6-0.6,1.3-1.1,2-1.5l113.2-66.1c2.4-1.4,5-1.1,7.1,0.2
						c0,0,0,0,0,0L306.8,91.6z"/>
				</g>
				<path class="st7" d="M311.4,99.4v247.2c0,3.2-1.7,6.1-4.5,7.7l-110.4,63.3c-5.9,3.4-13.3-0.9-13.3-7.7v-246
					c0-3.2,1.7-6.1,4.4-7.7l110.4-64.5C304,88.2,311.4,92.5,311.4,99.4z"/>
				<g>
					<path class="st8" d="M297.7,116v225c0,1.7-0.9,3.3-2.4,4.1l-91.3,52.3c-1.1,0.7-2.4,0.8-3.5,0.5c-2-0.5-3.5-2.3-3.5-4.6v-224
						c0-1.7,0.9-3.2,2.3-4.1l48.3-28.2l43-25.1c0.3-0.2,0.6-0.3,0.9-0.4C294.4,110.5,297.7,112.7,297.7,116z"/>
					<g>
						<g>
							<path class="st2" d="M219.2,348.7c-0.6,0-1.2-0.3-1.6-0.9c-0.5-0.9-0.2-2,0.7-2.5l67.1-38.7c0.9-0.5,2-0.2,2.5,0.7
								c0.5,0.9,0.2,2-0.7,2.5l-67.1,38.7C219.9,348.7,219.5,348.7,219.2,348.7z"/>
						</g>
						<g>
							<path class="st2" d="M219.2,361.7c-0.6,0-1.2-0.3-1.6-0.9c-0.5-0.9-0.2-2,0.7-2.5l67.3-38.8c0.9-0.5,2-0.2,2.5,0.7
								c0.5,0.9,0.2,2-0.7,2.5l-67.3,38.8C219.9,361.6,219.5,361.7,219.2,361.7z"/>
						</g>
						<g>
							<path class="st2" d="M219.2,374.6c-0.6,0-1.2-0.3-1.6-0.9c-0.5-0.9-0.2-2,0.7-2.5l67.3-38.8c0.9-0.5,2-0.2,2.5,0.7
								c0.5,0.9,0.2,2-0.7,2.5l-67.3,38.8C219.9,374.5,219.5,374.6,219.2,374.6z"/>
						</g>
					</g>
					<g>
						<g>
							<path class="st2" d="M219.2,193.3c-0.6,0-1.2-0.3-1.6-0.9c-0.5-0.9-0.2-2,0.7-2.5l67.1-38.7c0.9-0.5,2-0.2,2.5,0.7
								c0.5,0.9,0.2,2-0.7,2.5l-67.1,38.7C219.9,193.3,219.5,193.3,219.2,193.3z"/>
						</g>
					</g>
				</g>
				<path class="st7" d="M220.4,152.8v12.1c0,1.8,1.9,2.9,3.4,2l47.9-28c0.7-0.4,1.1-1.2,1.1-2v-14.7L220.4,152.8z"/>
				<g>
					<path class="st9" d="M227.8,158.3c-0.7,0-1.4-0.4-1.7-1c-0.6-1-0.2-2.2,0.7-2.7l29.4-17.2c1-0.6,2.2-0.2,2.7,0.7
						c0.6,1,0.2,2.2-0.7,2.7L228.8,158C228.5,158.2,228.2,158.3,227.8,158.3z"/>
				</g>
				<path class="st9" d="M266.8,134.9c0,1.3-0.9,2.4-2,2.4c-1.1,0-2-1.1-2-2.4s0.9-2.4,2-2.4C265.9,132.4,266.8,133.5,266.8,134.9z"
					/>
			</g>
			<g>
				<g>
					<path class="st10" d="M311.4,174.9v106.6l-32.8,18.7l-54.8,31.2c-2.3,1.3-5.2-0.4-5.2-3v-98c0-1.2,0.7-2.4,1.7-3L311.4,174.9z"
						/>
					<path class="st11" d="M350.4,147.2v98c0,1.4-0.7,2.6-1.9,3.3L291.4,281L237.2,312c-0.8,0.4-1.6,0.6-2.4,0.5
						c-1.8-0.2-3.3-1.7-3.3-3.8v-97.2c0-1.4,0.7-2.6,1.9-3.3l111.3-64.3C347.2,142.5,350.4,144.3,350.4,147.2z"/>
					
						<ellipse transform="matrix(0.31 -0.9507 0.9507 0.31 -1.7339 438.0669)" class="st12" cx="300.9" cy="220.2" rx="21.7" ry="20"/>
					<g>
						<path class="st4" d="M350.4,219.2v26.1c0,1.4-0.7,2.6-1.9,3.3L291.4,281l20.6-62.5l9.3-26.8l19.6,18.5L350.4,219.2z"/>
						<polygon class="st8" points="340.9,210.3 336.9,217.7 326.3,215.4 322.1,222.7 312.1,218.6 321.3,191.8 						"/>
						<path class="st7" d="M329.3,259.5L291.4,281L237.2,312c-0.8,0.4-1.6,0.6-2.4,0.5l25.9-74.8l11.2-32.3l23.6,22.3L329.3,259.5z"
							/>
						<polygon class="st8" points="295.6,227.6 290.7,236.5 277.9,233.8 272.8,242.6 260.7,237.6 271.9,205.3 						"/>
					</g>
				</g>
				<g>
					<polygon class="st13" points="221.4,201.7 221.4,227.2 225.8,229.8 225.4,204.1 					"/>
					<polygon class="st14" points="248.2,190.9 248.2,216.8 225.8,229.8 225.4,204.1 					"/>
					<g>
						<path class="st8" d="M238.4,218.5L238.4,218.5c-0.9,0.5-1.6,0-1.6-1.1l-0.2-12.5c0-1,0.7-2.2,1.6-2.7l0,0
							c0.9-0.5,1.6,0,1.6,1.1l0.2,12.5C240,216.8,239.3,218,238.4,218.5z"/>
						<path class="st8" d="M245.2,206.8L245.2,206.8c0,1-0.7,2.2-1.6,2.7l-10.6,5.4c-0.9,0.5-1.6,0-1.6-1.1l0,0c0-1,0.7-2.2,1.6-2.7
							l10.6-5.4C244.5,205.3,245.2,205.8,245.2,206.8z"/>
					</g>
					<polygon class="st11" points="221.4,201.7 244.2,188.6 248.2,190.9 225.4,204.1 					"/>
				</g>
			</g>
		</g>
	</g>
	<g>
		<g>
			<ellipse class="st2" cx="412.7" cy="366.1" rx="38.7" ry="8.6"/>
		</g>
		<g>
			<g>
				<g>
					<g>
						<g>
							<path class="st11" d="M434.6,349.6c1,0.3,1.8,1.3,1.9,2.4c0.1,1,0.3,2.3,0.2,4.1c-0.1,4-0.2,5.7-0.2,5.7s-1.2,2.1-4.7,2.7
								l-1,0.1c0,0-7.9,4.8-11.6,5.1c-4.8,0.5-9.8-1.7-5.8-6.5c3.8-4.4,9.3-6.2,11-9.8c0.2-0.4,1.4-1.3,1.7-1.6
								C428.8,349.2,430.8,348.4,434.6,349.6z"/>
						</g>
						<g>
							<g>
								<g>
									<path class="st8" d="M426.5,358.2c-0.2,0-0.3-0.1-0.4-0.3c0,0-0.6-1.4-1.8-1.8c-1.1-0.4-2.3,0.6-2.3,0.6
										c-0.2,0.2-0.5,0.1-0.6-0.1c-0.2-0.2-0.1-0.5,0.1-0.6c0.1-0.1,1.6-1.3,3.1-0.8c1.5,0.5,2.3,2.2,2.3,2.3
										c0.1,0.2,0,0.5-0.2,0.6C426.6,358.2,426.5,358.2,426.5,358.2z"/>
								</g>
							</g>
							<g>
								<g>
									<path class="st8" d="M424.9,359.3c-0.2,0-0.3-0.1-0.4-0.3c0,0-0.6-1.4-1.8-1.8c-1.1-0.4-2.3,0.6-2.3,0.6
										c-0.2,0.2-0.5,0.1-0.6-0.1c-0.2-0.2-0.1-0.5,0.1-0.6c0.1-0.1,1.6-1.3,3.1-0.8c1.5,0.5,2.3,2.2,2.3,2.3
										c0.1,0.2,0,0.5-0.2,0.6C425,359.3,425,359.3,424.9,359.3z"/>
								</g>
							</g>
							<g>
								<g>
									<path class="st8" d="M423.1,360.3c-0.2,0-0.3-0.1-0.4-0.3c0,0-0.6-1.4-1.8-1.8c-1.1-0.4-2.3,0.6-2.3,0.6
										c-0.2,0.2-0.5,0.1-0.6-0.1c-0.2-0.2-0.1-0.5,0.1-0.6c0.1-0.1,1.6-1.3,3.1-0.8c1.5,0.5,2.3,2.2,2.3,2.3
										c0.1,0.2,0,0.5-0.2,0.6C423.2,360.3,423.2,360.3,423.1,360.3z"/>
								</g>
							</g>
						</g>
					</g>
					<g>
						<path class="st15" d="M434.1,341.8l0.4,10c0,0-2.5,2.6-6.4,0.9l-1-10.8C427.1,341.8,431.3,340.3,434.1,341.8z"/>
					</g>
				</g>
				<g>
					<g>
						<path class="st11" d="M406.7,349.8c1,0.3,1.8,1.3,1.9,2.4c0.1,1,0.3,2.3,0.2,4.1c-0.1,4-0.2,5.7-0.2,5.7s-1.2,2.1-4.7,2.7
							l-1.3,0.2c0,0-7.6,4.7-11.3,5.1c-4.8,0.5-9.8-1.7-5.8-6.5c3.8-4.4,9.3-6.2,11-9.8c0.2-0.4,1.4-1.3,1.7-1.6
							C400.9,349.3,402.9,348.5,406.7,349.8z"/>
					</g>
					<g>
						<g>
							<g>
								<path class="st8" d="M398.4,358.4c-0.2,0-0.3-0.1-0.4-0.3c0,0-0.6-1.4-1.8-1.8c-1.1-0.4-2.3,0.6-2.3,0.6
									c-0.2,0.2-0.5,0.1-0.6-0.1c-0.2-0.2-0.1-0.5,0.1-0.6c0.1-0.1,1.6-1.3,3.1-0.8c1.5,0.5,2.3,2.2,2.3,2.3
									c0.1,0.2,0,0.5-0.2,0.6C398.5,358.4,398.5,358.4,398.4,358.4z"/>
							</g>
						</g>
						<g>
							<g>
								<path class="st8" d="M396.8,359.5c-0.2,0-0.3-0.1-0.4-0.3c0,0-0.6-1.4-1.8-1.8c-1.1-0.4-2.3,0.6-2.3,0.6
									c-0.2,0.2-0.5,0.1-0.6-0.1c-0.2-0.2-0.1-0.5,0.1-0.6c0.1-0.1,1.6-1.3,3.1-0.8c1.5,0.5,2.3,2.2,2.3,2.3
									c0.1,0.2,0,0.5-0.2,0.6C396.9,359.5,396.9,359.5,396.8,359.5z"/>
							</g>
						</g>
						<g>
							<g>
								<path class="st8" d="M395,360.6c-0.2,0-0.3-0.1-0.4-0.3c0,0-0.6-1.4-1.8-1.8c-1.1-0.4-2.3,0.6-2.3,0.6
									c-0.2,0.2-0.5,0.1-0.6-0.1c-0.2-0.2-0.1-0.5,0.1-0.6c0.1-0.1,1.6-1.3,3.1-0.8c1.5,0.5,2.3,2.2,2.3,2.3
									c0.1,0.2,0,0.5-0.2,0.6C395.1,360.5,395.1,360.6,395,360.6z"/>
							</g>
						</g>
					</g>
					<g>
						<path class="st15" d="M406.2,341.9l0.4,10c0,0-2.5,2.6-6.4,0.9l-1-10.8C399.2,342,403.4,340.5,406.2,341.9z"/>
					</g>
				</g>
				<g>
					<path class="st7" d="M435.7,239.7l-37.7-7c-2.4,13.4-7.9,43.2-6.1,55.9c2.9,20.5,6.5,60.7,6.5,60.7c3.2,0.7,5.8,0.5,9-0.7
						c0,0,3.8-44.9,0.5-59.3c-2-8.7,2.7-23.7,5.3-36.6c0,0,0.8-2.1,2.1-2c1.9,0.1,1.6,3.3,1.8,4.2c0.9,11.8,1.9,23.3,3,32.3
						c2.1,17.9,6.5,61.8,6.5,61.8c3.2,0.7,5.1,0.5,8.3-0.7c0,0,3.3-51.4,1.4-61.8C433.2,270.1,435.5,251.7,435.7,239.7z"/>
				</g>
				<g>
					<path class="st5" d="M405.3,347.8C405.3,347.8,405.3,347.8,405.3,347.8c-0.3,0-0.5-0.3-0.5-0.5c0-0.4,1.8-42.7,1.5-48.5
						c-0.1-2.4-0.5-4-1-5.7c-0.6-2.3-1.2-4.6-1.1-9.3c0.2-7.9,5.6-31.4,5.9-32.4c0.1-0.3,0.3-0.4,0.6-0.4c0.3,0.1,0.4,0.3,0.4,0.6
						c-0.1,0.2-5.7,24.5-5.8,32.2c-0.1,4.5,0.5,6.8,1.1,9c0.4,1.6,0.9,3.3,1,5.9c0.3,5.8-1.4,46.8-1.5,48.6
						C405.8,347.6,405.6,347.8,405.3,347.8z"/>
				</g>
				<g>
					<path class="st5" d="M433.4,347.8C433.4,347.8,433.4,347.8,433.4,347.8c-0.3,0-0.5-0.2-0.5-0.5c0-1.8,0.6-44.8,0.9-48
						c0.3-3.3-0.7-15.2-1.8-21.6c-0.7-4.6-0.2-26-0.2-27c0-0.3,0.2-0.5,0.5-0.5c0,0,0,0,0,0c0.3,0,0.5,0.2,0.5,0.5
						c0,0.2-0.6,22.3,0.2,26.8c1.1,6.5,2.1,18.5,1.8,21.9c-0.3,3.2-0.9,47.5-0.9,48C433.9,347.6,433.7,347.8,433.4,347.8z"/>
				</g>
				<g>
					<path class="st9" d="M425.9,345.8c0,0,5.6,0.6,9.9-0.5c0.3,1.7,0.1,3.4-0.2,4.4c0,0-5.1,1.3-9.2,0.3
						C425.9,348.8,425.5,347.3,425.9,345.8z"/>
				</g>
				<g>
					<path class="st9" d="M397.9,345.8c0,0,5.8,0.6,10.2-0.5c0.3,1.7,0.2,3.4-0.3,4.4c0,0-5.2,1.3-9.5,0.3
						C397.9,348.8,397.5,347.3,397.9,345.8z"/>
				</g>
			</g>
			<g>
				<g>
					<g>
						<path class="st11" d="M403.5,182.9c-1.9,9.7-10.4,17-10.4,17l-7.3-6.5c0.5-0.3,1-0.9,1.5-1.7c0.2-0.3,0.4-0.6,0.6-0.9
							c5.1-8.3,13-32.2,13-32.2S405.5,173.3,403.5,182.9z"/>
					</g>
					<g>
						<path class="st11" d="M394,198.5c0,0-1.6,4.6-7.7,3.9c-6.1-0.7-21-18.3-21-18.3c2,0,3.7-0.5,6.5-1.5c0,0,6.8,6.7,13.5,8.3
							S394,198.5,394,198.5z"/>
					</g>
					<g>
						<path class="st14" d="M391.3,196.2c-0.1,0-0.1,0-0.2,0c-0.2,0-0.4-0.1-0.5-0.3c-0.9-1.9-2.3-3.3-3.3-4.1
							c0.2-0.3,0.4-0.6,0.6-0.9c1,0.8,2.6,2.4,3.6,4.5C391.7,195.8,391.6,196.1,391.3,196.2z"/>
					</g>
					<g>
						<g>
							<g>
								<g>
									<polygon class="st4" points="356.5,166.3 357.7,165.8 357.4,166.5 									"/>
								</g>
								<g>
									<path class="st4" d="M367,167l7.9,13.2c0.5,0.8,0.1,1.8-0.8,1.7l-2.9-0.3l-5-0.5c-0.4,0-0.8-0.3-1-0.7l-7.8-13
										c-0.5-0.8-0.1-1.8,0.7-1.7l7.9,0.6C366.4,166.4,366.8,166.7,367,167z"/>
								</g>
								<g>
									<polygon class="st4" points="374.6,181.9 373.7,182.5 373.3,182 374.5,181.4 									"/>
								</g>
								<g>
									<path class="st7" d="M356.3,167.9l7.9,13.1c0.2,0.4,0.6,0.6,1,0.7l8,0.9c0.8,0.1,1.3-0.9,0.7-1.7l-8-13.3
										c-0.2-0.4-0.6-0.7-1-0.7l-7.9-0.7C356.2,166.1,355.8,167.1,356.3,167.9z"/>
								</g>
							</g>
							<g>
								<path class="st4" d="M365.6,174.5c0.6,1,0.7,2,0.2,2.3c-0.5,0.3-1.3-0.3-1.9-1.2c-0.6-1-0.7-2-0.2-2.3
									C364.2,173,365,173.6,365.6,174.5z"/>
							</g>
						</g>
						<g>
							<g>
								<path class="st15" d="M358.4,172.4C358.4,172.5,358.4,172.5,358.4,172.4c-0.1-0.1-0.8-2.1-0.1-2.5c0.3-0.1,0.6,0.2,1,0.7
									c0,0,0,0,0,0c0.6,0.8,1.1,1.8,1.3,2.2l0,0c0,0,0,0,0,0c0,0,0-0.1-0.1-0.1c0,0,0,0,0,0c0-0.1-0.1-0.2-0.1-0.3c0,0,0,0,0,0
									c-0.4-1-1.1-3.1-0.5-3.6c0.4-0.4,1.4,1,2.1,2.3c0.6,1,1.1,2.1,1.2,2.2c0,0-0.1-0.2-0.1-0.4c0,0,0,0,0,0
									c-0.3-0.9-0.7-2.8,0-3.3c0.6-0.4,1.4,1.5,2,3l0,0c0.4,1,0.7,1.9,0.7,1.9s-0.3-2.8,0.6-2.7c0.8,0.1,1.4,4.7,2.4,6.1
									c1,1.3,3.1,3,3,4.5c0,0.8-1.4,2.6-4.9,2.4c-1.2-0.1-2.4-0.7-3.2-1.6C361.2,180.3,358.7,175.1,358.4,172.4"/>
							</g>
							<g>
								<path class="st3" d="M362,175.9c-0.1-0.1-1.3-1.4-1.7-2.4c-0.4-1-1-2.9-1-2.9s0,0,0,0c0.6,0.8,1.1,1.8,1.3,2.2l0,0
									C360.6,173.2,361.4,175.2,362,175.9z"/>
							</g>
							<g>
								<path class="st3" d="M364.1,175.9c-0.1-0.1-1.2-1.8-1.6-2.9c-0.3-0.7-0.4-1.5-0.5-1.9c0.6,1,1.1,2.1,1.2,2.2
									C363.2,173.4,363.9,175.4,364.1,175.9z"/>
							</g>
							<g>
								<path class="st3" d="M366,176.4c0,0-1.2-2.5-1-3.8c0.4,1,0.7,1.9,0.7,1.9"/>
							</g>
						</g>
					</g>
				</g>
				<g>
					<path class="st16" d="M435.7,239.7c-8.3,6.3-40.9-1.2-38.5-9.6c1.5-5.3,6.8-28.2,6-35.3c-0.8-7.1-6.2-11.4-2.7-19.4
						c2.1-4.7,1.9-9.4,0.7-13.8c-1-3.6,0.3-5.1,3.8-5.6c1.6-0.2,4.3-0.3,6.7,0c5,0.7,10.8,1.7,15.7,2.8c3.7,0.8,6.9,1.7,9,2.6
						c8.7,3.8-3.2,22.1-5,32.7C429.5,204.8,440.1,236.3,435.7,239.7z"/>
				</g>
				<g>
					<path class="st11" d="M417.8,195.2c-9.2,0-14.1-2.6-14.4-2.8c-0.2-0.1-0.3-0.4-0.2-0.7c0.1-0.2,0.4-0.3,0.7-0.2l0,0
						c0.1,0,7,3.7,19.7,2.3c0.3,0,0.5,0.2,0.6,0.5c0,0.3-0.2,0.5-0.5,0.6C421.6,195.1,419.6,195.2,417.8,195.2z"/>
				</g>
				<g>
					<path class="st11" d="M415.6,176.6c0,0-0.1,0-0.1,0c-5.8-1.8-7.1-5.7-7.1-5.9c-0.1-0.3,0.1-0.6,0.3-0.6
						c0.3-0.1,0.6,0.1,0.6,0.3c0,0.1,1.2,3.6,6.4,5.2c0.3,0.1,0.4,0.4,0.3,0.6C416.1,176.5,415.9,176.6,415.6,176.6z"/>
				</g>
				<g>
					<path class="st11" d="M422.2,230.6c-12.6,0-19.8-7-20.1-7.3c-0.2-0.2-0.2-0.5,0-0.7c0.2-0.2,0.5-0.2,0.7,0
						c0.1,0.1,7.2,7,19.4,7c0.3,0,0.5,0.2,0.5,0.5C422.7,230.4,422.5,230.6,422.2,230.6C422.2,230.6,422.2,230.6,422.2,230.6z"/>
				</g>
				<g>
					<path class="st11" d="M420.7,228.2C420.7,228.2,420.7,228.2,420.7,228.2c-4.7-0.1-10.7-3.9-10.9-4.1c-0.2-0.2-0.3-0.5-0.2-0.7
						c0.2-0.2,0.5-0.3,0.7-0.2c0.1,0,5.9,3.8,10.4,3.9c0.3,0,0.5,0.2,0.5,0.5C421.2,228,421,228.2,420.7,228.2z"/>
				</g>
				<g>
					<path class="st8" d="M427.4,158.7c-1.4,7.4-13.2,13.9-16.1,9.4c-2.5-3.8-0.5-9.8,0.4-12.1C416.8,156.7,422.5,157.7,427.4,158.7
						z"/>
				</g>
				<g>
					<g>
						<path class="st16" d="M440.9,230.6c-2-1.4-3.2-3.7-4-6.6c0,0,6.7-7.8,8.2-21.6c0-0.2,0.1-0.5,0.1-0.7c0,0,0-0.1,0-0.4
							c-0.1-2.2-0.9-13.6-7-22.3c0,0-8.7-6.9-0.6-17c0,0,13.4,12.8,16.9,33.6C457.2,212.4,440.9,230.6,440.9,230.6z"/>
					</g>
					<g>
						<g>
							<path class="st11" d="M450.4,201.5c0,0.3-0.3,0.5-0.5,0.5c-1.9-0.1-3.8,0.2-4.7,0.4c0-0.2,0.1-0.5,0.1-0.7c0,0,0-0.1,0-0.4
								c1-0.2,2.9-0.5,4.7-0.4C450.2,201,450.4,201.3,450.4,201.5z"/>
						</g>
					</g>
					<g>
						<g>
							<path class="st3" d="M435.5,224.4l1.4-0.4c0.9,2.9,2.1,5.4,4,6.6c0,0-1.4,2.3-2.7,2.3C436.9,232.8,435.5,224.4,435.5,224.4z"
								/>
						</g>
						<g>
							<path class="st15" d="M433.5,222.9c0,0-5.8,2.7-4.6,4c0.4,0.5,5-1,5-1l0.2,0.8c0,0-4.9,2-5.1,3.6c-0.2,1.6,5.6-1.1,5.6-1.1
								l0.2,1c0,0-3.9,1.5-4.2,2.9c-0.3,1.4,5.3-0.8,5.3-0.8l0.2,0.8c0,0-2.2,1.2-2.6,2.5c-0.5,1.3,3.4-0.4,4.8-1.5
								c1.4-1.1,0.7-2.2,0.3-2.7c0,0,0.1-2.2-1.2-3c0,0,0.5-1.9-1-2.7C436.4,225.5,436.4,221.8,433.5,222.9z"/>
						</g>
						<g>
							<path class="st15" d="M435.5,223.7c0,0,0.3-4.4-2-4.8l0.8,4.4L435.5,223.7z"/>
						</g>
					</g>
				</g>
			</g>
			<g>
				<path class="st4" d="M405.7,139.1c0,0,0,7.9,1.9,13.1c1.7,4.8-0.9,9-0.9,9s1.3-4-0.9-8.3c-2.2-4.3-4.1-13.6-3.7-21.4
					L405.7,139.1z"/>
				<g>
					<path class="st4" d="M423.5,149.4c0,0,6.8-2.5,8.1-9.4c1.4-6.9,1-17.2-8.5-20.2c-9.5-3-18.2-0.1-20.4,8.6
						C402.7,128.5,410,145.9,423.5,149.4z"/>
				</g>
				<g>
					<g>
						<g>
							<path class="st15" d="M412.8,152.8l0.5,4.8l0.3,2.8c5.5,2.4,11.1-1.2,11-1.7c-0.6-2.1-1.1-5.8-1.2-9.3
								c-0.1-0.1-0.2-0.1-0.3-0.2C420.3,148,412.8,152.8,412.8,152.8z"/>
						</g>
						<g>
							<path class="st3" d="M412.8,152.8l0.5,4.8c5.5-1.9,8.5-6,9.8-8.3C420.3,148,412.8,152.8,412.8,152.8z"/>
						</g>
					</g>
					<g>
						<g>
							<path class="st3" d="M404.3,137.6c0,0-2.1-2.5-3.5-0.3c-1.4,2.3,1.1,8.6,4.6,6.8L404.3,137.6z"/>
						</g>
						<g>
							<path class="st8" d="M403.3,143.1c0,0.3-0.3,0.4-0.5,0.4c-0.3,0-0.4-0.3-0.4-0.5c0-0.3,0.3-0.4,0.5-0.4
								C403.2,142.6,403.4,142.8,403.3,143.1z"/>
						</g>
						<g>
							<g>
								<path class="st17" d="M404.6,142.2c-0.1,0-0.3-0.1-0.3-0.2c-0.7-2-2.8-2.7-2.8-2.7c-0.2-0.1-0.3-0.2-0.2-0.4
									c0.1-0.2,0.2-0.3,0.4-0.2c0.1,0,2.4,0.8,3.2,3.1C404.9,141.9,404.8,142.1,404.6,142.2C404.6,142.2,404.6,142.2,404.6,142.2z
									"/>
							</g>
						</g>
						<g>
							<g>
								<path class="st17" d="M402.4,141.3c-0.1,0-0.1,0-0.2,0c-0.1-0.1-0.2-0.3-0.1-0.4c0,0,0.3-0.6,1.1-1c0.1-0.1,0.3,0,0.4,0.1
									c0.1,0.2,0,0.3-0.1,0.4c-0.6,0.3-0.8,0.7-0.8,0.7C402.6,141.2,402.5,141.3,402.4,141.3z"/>
							</g>
						</g>
					</g>
					<g>
						<path class="st15" d="M402.6,140.7c0.1,0.7,0.1,1.4,0.2,2c0.9,5.4,5.7,16.5,15.3,10.9c2.3-1.4,4-2.7,5.3-4.1
							c1-1.1,1.8-2.3,2.5-3.6c0.3-0.5,0.4-1.1,0.6-1.6c0-0.1,0.1-0.2,0.1-0.3c0-0.1,0-0.1,0-0.2c0.5-1.6,0.8-3.1,1.1-4.6
							c0.3-1.9,0.6-3.6,0.7-5.1c0.3-2.6-0.9-5.2-3.1-6.8c-5.8-4.2-12.5-3.7-17.1-2.5c-3.1,0.8-5.4,3.5-5.6,6.8
							c-0.1,1.5-0.2,3.3-0.2,5C402.5,138,402.5,139.5,402.6,140.7z"/>
					</g>
					<g>
						<path class="st4" d="M406.6,135.5c0-0.3-0.2-0.5-0.5-0.5c-0.8,0-1.7,0.1-2.5,0.4c-1.8,0.6-2,1.1-2,1.1s0.2,0.2,2.6-0.3
							c0.6-0.1,1.4-0.2,2.1-0.2C406.5,136,406.7,135.8,406.6,135.5C406.6,135.5,406.6,135.5,406.6,135.5z"/>
					</g>
					<g>
						<path class="st4" d="M413.2,135.1c-0.1-0.3,0.2-0.6,0.5-0.7c0.9-0.1,2-0.2,3.1-0.1c2.2,0.3,2.6,0.8,2.6,0.8s-0.2,0.3-3.1,0.3
							c-0.7,0-1.7,0.1-2.5,0.2C413.5,135.7,413.2,135.5,413.2,135.1C413.2,135.2,413.2,135.2,413.2,135.1z"/>
					</g>
					<g>
						<g>
							<path class="st3" d="M411.6,144.9C411.6,144.9,411.5,144.9,411.6,144.9l-2.1-0.8l0.8-4.9c0-0.2,0.2-0.4,0.5-0.3
								c0.2,0,0.4,0.2,0.3,0.5l-0.7,4.2l1.4,0.5c0.2,0.1,0.3,0.3,0.2,0.5C412,144.9,411.8,145,411.6,144.9z"/>
						</g>
					</g>
					<g>
						<path class="st3" d="M422.7,143.9c0,0,1,1.9,3.3,2c0.2-0.5,0.4-1.1,0.6-1.6C425.4,144.5,423.7,144.6,422.7,143.9z"/>
					</g>
					<g>
						<path class="st4" d="M423.5,149.4c1-1.1,1.8-2.3,2.5-3.6c0.3-0.5,0.4-1.1,0.6-1.6c0-0.1,0.1-0.2,0.1-0.3
							c-0.2,0-0.6,0.1-1.2,0.3C425.4,144.3,422.8,147.2,423.5,149.4z"/>
					</g>
					<g>
						<path class="st8" d="M408.4,147.3c0.5,1.4,1.8,3.9,4.9,3.4c3.2-0.4,3.7-2.9,3.8-4.6L408.4,147.3z"/>
					</g>
					<g>
						<path class="st4" d="M414.7,139.4c0,0.8,0.5,1.4,1,1.3c0.5,0,0.8-0.7,0.8-1.4c0-0.8-0.5-1.4-1-1.3
							C415,138,414.6,138.6,414.7,139.4z"/>
					</g>
					<g>
						<path class="st4" d="M404.7,139.9c0,0.8,0.5,1.4,1,1.3c0.5,0,0.8-0.7,0.8-1.4c0-0.8-0.5-1.4-1-1.3
							C405,138.5,404.7,139.2,404.7,139.9z"/>
					</g>
					<g>
						<g>
							<path class="st15" d="M425.5,138.1c0,0,2.2-2.2,3.3,0c1.1,2.2-1.1,7.8-5,6.2L425.5,138.1z"/>
						</g>
						<g>
							<path class="st8" d="M426.4,143.9c0,0.3-0.3,0.4-0.5,0.4c-0.3,0-0.4-0.3-0.4-0.5c0-0.3,0.3-0.4,0.5-0.4
								C426.2,143.4,426.4,143.6,426.4,143.9z"/>
						</g>
						<g>
							<g>
								<path class="st3" d="M425,142.5c0.1,0,0.3-0.1,0.3-0.2c0.8-1.8,2.8-2.3,2.8-2.3c0.2,0,0.3-0.2,0.2-0.3
									c0-0.2-0.2-0.3-0.3-0.2c-0.1,0-2.3,0.6-3.2,2.7C424.7,142.2,424.8,142.4,425,142.5C424.9,142.4,425,142.5,425,142.5z"/>
							</g>
						</g>
						<g>
							<g>
								<path class="st3" d="M427.1,141.8c0.1,0,0.1,0,0.2,0c0.1-0.1,0.2-0.2,0.1-0.4c0,0-0.3-0.6-1-1c-0.1-0.1-0.3,0-0.4,0.1
									c-0.1,0.1,0,0.3,0.1,0.4c0.5,0.3,0.7,0.8,0.7,0.8C426.9,141.7,427,141.8,427.1,141.8z"/>
							</g>
						</g>
					</g>
				</g>
				<g>
					<path class="st4" d="M428.1,137.2c-1-0.2-1.6-0.1-2.2,0.1c-0.4,0.2-0.7,0.4-0.9,0.7c-0.1,0.1-0.1,0.1-0.2,0.2
						c-0.1,0-0.2-0.1-0.3-0.2c-0.2-0.2-0.5-0.4-0.6-0.7c-0.5-0.8-1.1-1.4-1.3-2.1c-0.3-1.1-1.5-2.2-1.5-2.2
						c-9.7,3-17.3-5.3-17.3-5.3c3-9.2,19.2-4.8,23.4-2.6C431.4,127.4,432.8,138,428.1,137.2z"/>
				</g>
				<path class="st4" d="M422.6,135.2c0,0,2.2,3.3,0.5,8c-1.8,4.7-3.1,12,1.3,14.4c0,0-2.1-5.1-1.2-8.3c1-3.8,2.8-7.6,2.2-10.4
					C424.7,136.2,423.5,134.6,422.6,135.2z"/>
				<g>
					<path class="st4" d="M405.9,128.4c0,0,0.8,6.4-3.6,8.6C402.4,137,400.5,124.1,405.9,128.4z"/>
				</g>
				<g>
					<g>
						<g>
							<path class="st8" d="M412.6,139.7c-0.1-2.3,1.7-4.3,4-4.4c2.3-0.1,4.3,1.7,4.4,4c0.1,2.3-1.7,4.3-4,4.4
								C414.7,143.9,412.7,142.1,412.6,139.7z M413.2,139.7c0.1,2,1.8,3.5,3.7,3.4c2-0.1,3.5-1.8,3.4-3.7c-0.1-2-1.8-3.5-3.7-3.4
								C414.6,136.1,413.1,137.8,413.2,139.7z"/>
						</g>
					</g>
					<g>
						<g>
							<path class="st8" d="M401.1,140.4c-0.1-2.3,1.7-4.3,4-4.4c2.3-0.1,4.3,1.7,4.4,4c0.1,2.3-1.7,4.3-4,4.4
								C403.2,144.5,401.2,142.7,401.1,140.4z M401.7,140.3c0.1,2,1.8,3.5,3.7,3.4c2-0.1,3.5-1.8,3.4-3.7s-1.8-3.5-3.7-3.4
								C403.1,136.7,401.6,138.4,401.7,140.3z"/>
						</g>
					</g>
					<g>
						<g>
							<path class="st8" d="M423.9,137.4c-0.7,0.1-3,0.5-3.4,0.6c0.1,0.2,0.3,1.1,0.3,0.9c0-0.2,1.4-0.5,1.4-0.5
								c0.5-0.1,1.3-0.3,2.3-0.3c0.2,0,0.3,0,0.5,0c0.3-0.3,0.6-0.6,0.9-0.7C425.2,137.3,424.5,137.3,423.9,137.4z"/>
						</g>
					</g>
					<g>
						<g>
							<path class="st8" d="M409.2,139c0,0,0.7-1.1,1.8-1.2c1-0.1,1.8,1,1.8,1l0.5-0.4c0-0.1-1-1.3-2.4-1.2
								c-1.4,0.1-2.2,1.4-2.3,1.5L409.2,139z"/>
						</g>
					</g>
				</g>
				<g>
					<path class="st16" d="M432.5,132.7c0,0,3.5-9.5-2.3-13.2c-6.4-4-19.1-6.9-25,3.6L432.5,132.7z"/>
					<path class="st11" d="M432,137.6c0,0-4.2-5.1-14-8.2c-9.7-3.2-15.7-1.4-15.7-1.4s-0.4-3.2,1.6-5.4c2-2.2,13.3-0.7,19.5,2.1
						c7.5,3.4,10.4,7.8,10.4,7.8S434.2,136.1,432,137.6z"/>
				</g>
			</g>
		</g>
	</g>
	<g>
		<ellipse class="st2" cx="100.7" cy="440.7" rx="40.5" ry="10.5"/>
		<g>
			<g>
				<g>
					<g>
						<path class="st11" d="M104.3,446.4c0,0,2.6,2,5.4,0.9l1.2-0.5l1-0.5c0,0,11.4-5,15-7.8c3.6-2.9,6.6-8.3,1.6-10.5
							c-5-2.2-12.6,3.1-15.3,1.7c0,0-8.3-0.1-8.2,4.3C104.4,438.7,103.9,440.8,104.3,446.4z"/>
						<g>
							<g>
								<path class="st8" d="M122.6,432c-0.2-0.1-0.3-0.2-0.3-0.4c0,0-0.1-1.7-1.1-2.5c-1-0.8-2.5-0.2-2.6-0.2
									c-0.3,0.1-0.5,0-0.6-0.3c-0.1-0.3,0-0.5,0.3-0.6c0.1,0,2.1-0.7,3.5,0.4c1.4,1.1,1.5,3.1,1.5,3.2c0,0.3-0.2,0.5-0.5,0.5
									C122.7,432.1,122.6,432,122.6,432z"/>
							</g>
							<g>
								<path class="st8" d="M121,432.5c-0.2-0.1-0.3-0.2-0.3-0.4c0,0-0.1-1.7-1.1-2.5c-1-0.8-2.5-0.2-2.6-0.2
									c-0.3,0.1-0.5,0-0.6-0.3c-0.1-0.3,0-0.5,0.3-0.6c0.1,0,2.1-0.7,3.5,0.4c1.4,1.1,1.5,3.1,1.5,3.2c0,0.3-0.2,0.5-0.5,0.5
									C121.1,432.5,121,432.5,121,432.5z"/>
							</g>
							<g>
								<path class="st8" d="M119.2,433c-0.2-0.1-0.3-0.2-0.3-0.4c0,0-0.1-1.7-1.1-2.5c-1-0.8-2.5-0.2-2.6-0.2
									c-0.3,0.1-0.5,0-0.6-0.3c-0.1-0.3,0-0.5,0.3-0.6c0.1,0,2.1-0.7,3.5,0.4c1.4,1.1,1.5,3.1,1.5,3.2c0,0.3-0.2,0.5-0.5,0.5
									C119.3,433,119.3,433,119.2,433z"/>
							</g>
						</g>
					</g>
					<path class="st15" d="M107.1,420.2l-0.8,13c0,0,2.3,1.5,7,0.2l3-12C116.3,421.5,110.5,419,107.1,420.2z"/>
				</g>
				<path class="st7" d="M85.3,307.3l27.5-1.5c0,0,4.5,48.3,5.3,59.7s-2.7,60.2-2.7,60.2c-5.6,3.1-10.5-0.1-10.5-0.1
					s-0.1-18.4-0.3-23.6c-0.3-5.2-2.4-25-1.9-29.9c0,0-6.6-37.6-7.4-39.5c-0.8-2-10.1-2.7-10.1-2.7V307.3z"/>
				<g>
					<path class="st5" d="M114.4,426.1C114.3,426.1,114.3,426.1,114.4,426.1c-0.3,0-0.5-0.2-0.5-0.5c0-0.5,1.8-48.2,1.9-54.5
						c0-6.3-3.7-44.9-3.7-45.3c0-0.3,0.2-0.5,0.5-0.5c0.3,0,0.5,0.2,0.5,0.5c0.2,1.6,3.7,39.1,3.7,45.4c0,6.3-1.8,54.1-1.9,54.6
						C114.8,425.9,114.6,426.1,114.4,426.1z"/>
				</g>
				<path class="st9" d="M104.4,422.7c0,0,6.6,1.2,11.8,0.3c0.2,2-0.1,4.1-0.7,5.2c0,0-6.1,1.1-10.9-0.4
					C104.1,426.2,103.8,424.4,104.4,422.7z"/>
			</g>
			<g>
				<g>
					<g>
						<path class="st11" d="M67,446.1c0,0,2.6,2,5.4,0.9l1.2-0.5l1-0.5c0,0,11.5-4.8,15.1-7.7c3.6-2.9,6.7-8.2,1.7-10.5
							s-12.7,2.9-15.3,1.6c0,0-8.3-0.2-8.3,4.3C67.2,438.4,66.6,440.5,67,446.1z"/>
						<g>
							<g>
								<path class="st8" d="M85.4,431.9c-0.2-0.1-0.3-0.2-0.3-0.4c0,0-0.1-1.7-1.1-2.5c-1-0.8-2.5-0.3-2.5-0.2
									c-0.3,0.1-0.5,0-0.6-0.3c-0.1-0.3,0-0.5,0.3-0.6c0.1,0,2.1-0.7,3.5,0.4c1.4,1.1,1.5,3.1,1.5,3.2c0,0.3-0.2,0.5-0.5,0.5
									C85.5,431.9,85.5,431.9,85.4,431.9z"/>
							</g>
							<g>
								<path class="st8" d="M83.8,432.4c-0.2-0.1-0.3-0.2-0.3-0.4c0,0-0.1-1.7-1.1-2.5c-1-0.8-2.5-0.3-2.5-0.2
									c-0.3,0.1-0.5,0-0.6-0.3c-0.1-0.3,0-0.5,0.3-0.6c0.1,0,2.1-0.7,3.5,0.4c1.4,1.1,1.5,3.1,1.5,3.2c0,0.3-0.2,0.5-0.5,0.5
									C83.9,432.4,83.9,432.4,83.8,432.4z"/>
							</g>
							<g>
								<path class="st8" d="M82,432.8c-0.2-0.1-0.3-0.2-0.3-0.4c0,0-0.1-1.7-1.1-2.5c-1-0.8-2.5-0.3-2.5-0.2
									c-0.3,0.1-0.5,0-0.6-0.3c-0.1-0.3,0-0.5,0.3-0.6c0.1,0,2.1-0.7,3.5,0.4c1.4,1.1,1.5,3.1,1.5,3.2c0,0.3-0.2,0.5-0.5,0.5
									C82.2,432.9,82.1,432.8,82,432.8z"/>
							</g>
						</g>
					</g>
					<path class="st15" d="M70.1,420l-0.9,13c0,0,2.3,1.5,7,0.2l3.1-11.9C79.3,421.3,73.4,418.8,70.1,420z"/>
				</g>
				<path class="st7" d="M90.1,313.5c0,0-2.1,41.7-2.5,53.1c-0.4,11.4-9,59.6-9,59.6c-5.9,2.5-10.4-1.2-10.4-1.2s1.9-18.3,2.1-23.5
					c0.3-5.2-1.2-22.2,1.3-30c0,0-2.7-38-3.2-40.1c0,0-0.1-3.7-0.2-8.9c-0.1-3.8,0-8.1,0-8.1L90.1,313.5z"/>
				<g>
					<path class="st5" d="M77.6,426.5C77.6,426.5,77.5,426.5,77.6,426.5c-0.3,0-0.5-0.3-0.5-0.6c0.1-0.5,6.9-47.8,7.5-54
						c0.7-6.2,1-40.8,1-41.1c0-0.3,0.2-0.5,0.5-0.5c0.3,0,0.5,0.2,0.5,0.5c0,1.4-0.4,34.9-1,41.2c-0.7,6.3-7.5,53.6-7.5,54.1
						C78,426.3,77.8,426.5,77.6,426.5z"/>
				</g>
				<path class="st9" d="M68,422c0,0,6.5,1.9,11.7,1.5c0,2-0.6,4-1.2,5.1c0,0-6.2,0.5-10.8-1.6C67.3,425.5,67.2,423.7,68,422z"/>
			</g>
			<path class="st16" d="M112.6,277.1c0.5,19,3.7,42.1,3.7,42.1s-36.8,11.6-48.9-1c0,0,3.7-79.8,5.2-88.8c0,0,0-0.1,0-0.1
				c0.5-3,0.4-2.6,0.8-4.4c0.4-1.9,2.5-4.1,4.7-5c1-0.4,2-0.6,2.9-0.4c11.1,3.3,30.2,8.5,33.9,11.9c2.6,2.4,1.6,11.2,0.2,21.2
				c-0.1,0.5-0.1,0.9-0.2,1.4C113.7,261.9,112.4,270.5,112.6,277.1z"/>
			<g>
				<path class="st11" d="M94.5,303.1C94.5,303.1,94.5,303,94.5,303.1c-13.7-2.1-22.3-15.5-22.4-15.6c-0.2-0.2-0.1-0.6,0.2-0.7
					c0.2-0.2,0.6-0.1,0.7,0.2c0.1,0.1,8.5,13.2,21.6,15.2c0.3,0,0.5,0.3,0.4,0.6C95,302.9,94.8,303.1,94.5,303.1z"/>
			</g>
			<g>
				<path class="st11" d="M115,252.5c-0.1,0.5-0.1,0.9-0.2,1.4c-3-3.6-5-7.9-5.1-8.1c-0.1-0.3,0-0.6,0.3-0.7c0.3-0.1,0.6,0,0.7,0.3
					C110.7,245.4,112.4,249.1,115,252.5z"/>
			</g>
			<g>
				<path class="st11" d="M88.9,279.8c-0.1,0-0.3,0-0.4-0.1c-8.4-8.2-11.3-27.4-11.5-28.2c0-0.3,0.2-0.5,0.4-0.6
					c0.3,0,0.5,0.2,0.6,0.4c0,0.2,3,19.6,11.2,27.6c0.2,0.2,0.2,0.5,0,0.7C89.2,279.7,89,279.8,88.9,279.8z"/>
			</g>
			<g>
				<path class="st15" d="M114.5,205.6c0,0,0.6,4.3,0.6,5.5c0,0.6-2.2,0.9-2.2,0.9S113.6,206.6,114.5,205.6z"/>
				<path class="st15" d="M95.1,225.4c1.4,0.5,4.1,0.9,6.8,0.5l0.3-2l0.1-0.5l0.6-4.2l0.1-0.5c0,0-7.8-5.5-11-4.3
					c-0.1,0-0.2,0.1-0.3,0.2c-0.2,2.5-0.9,5.7-1.3,7.8C90.4,223.3,92.3,224.4,95.1,225.4z"/>
				<path class="st3" d="M102.9,219.2l-0.6,4.2c-3.3-1.7-6-5-6-5L102.9,219.2z"/>
				<path class="st15" d="M114.7,201.6c-0.1,1.6-0.2,3.1-0.3,4.5c-0.1,0.8-0.2,1.5-0.3,2.1c-0.1,0.6-0.3,1.4-0.6,2.1c0,0,0,0,0,0
					c0,0.1-0.2,1.2-0.6,2.6c0,0,0,0.1,0,0.1c-0.3,1.2-0.7,2.6-1.2,3.9c0,0.1-0.1,0.2-0.1,0.2c-0.5,1.1-1,2.1-1.6,2.5
					c-3.1,2.2-13.6-1.3-13.6-1.3l-1-0.4c-1.2-0.3-1.4-0.8-2-1.4c-0.7-0.7-1.4-1.3-2-2c-1-1.2-1.8-2.6-2.5-4
					c-0.3-0.6-0.4-1.2-0.5-1.8c0-0.1-0.1-0.2-0.1-0.3c0-0.1,0-0.1,0-0.2c-0.4-1.7-0.7-3.5-1-5.1c-0.3-2.1-0.4-4-0.5-5.5
					c-0.1-2.9,1.3-5.6,3.7-7.2c6.5-4.3,13.8-3.4,18.7-1.9c3.4,1,5.7,4.1,5.8,7.6C114.8,197.9,114.8,199.8,114.7,201.6z"/>
				<path class="st4" d="M113.7,204.7c-0.1,0.8-0.4,1.4-0.7,1.4c-0.3,0-0.5-0.7-0.4-1.5c0.1-0.8,0.4-1.4,0.7-1.4
					C113.6,203.3,113.8,203.9,113.7,204.7z"/>
				<g>
					<path class="st4" d="M114.8,199.6c-1.3-0.2-2.8-0.2-4.2,0.3c-0.1,0-0.2,0.2-0.2,0.3l0.2,0.9c0,0.2,0.2,0.3,0.3,0.2
						c0.6-0.1,2.1-0.3,3.8-0.1c0.2,0,0.3-0.1,0.3-0.3c0-0.4,0-0.8,0-1.2C115.1,199.7,115,199.6,114.8,199.6z"/>
				</g>
				<path class="st4" d="M104,205.4c-0.1,1.8,3.1,0.9,3.3-1.9c0.1-2.8,0-5.5,3.2-5.5c3.2,0,3-4.4,6.1-6.2c3.1-1.8,3.7-5.4,2.2-7.5
					c-1.5-2.1-5,2.1-5,2.1s1.4-4.2-0.1-5.7c-1.5-1.5-4.9,4.2-4.9,4.2s1.5-5.3,0.3-5.7c-1.2-0.4-2.3,0-4.7,4.5c0,0-11.1,1-14.5,4.4
					c0,0-3-1.6-4.7,0.3c-1.7,1.9,1.4,2.3,1.4,2.3s-3.9,0.8-3.3,2.8c0.6,1.9,2.7,1,2.7,1s-0.8,8.7,1.2,12c0,0-2.1,6.3-0.2,7.5
					c1.6,1,3-0.7,3-0.7s-2.4,4.8,0.9,4.8c1.4,0,3.8-3.8,3.8-3.8s-2.2,5.2,0.6,4.9c3.3-0.3,5.8-9.1,5.1-9.6c0,0-3.4-0.6-3-5
					c0.4-4.7,3.4-4.5,4.9-3.8C104.3,201.7,104,205.4,104,205.4z"/>
				<g>
					<path class="st3" d="M101.6,207.5c-0.1-0.1-0.2-0.2-0.2-0.3c0.4-2.1-1.1-3.8-1.1-3.8c-0.1-0.1-0.1-0.3,0-0.4
						c0.1-0.1,0.3-0.1,0.4,0c0.1,0.1,1.7,2,1.2,4.4C102.1,207.5,101.9,207.6,101.6,207.5C101.7,207.5,101.7,207.5,101.6,207.5z"/>
				</g>
				<g>
					<path class="st3" d="M100.2,205.6c-0.1,0-0.1-0.1-0.1-0.1c-0.1-0.2,0-0.3,0.1-0.4c0,0,0.6-0.3,1.5-0.3c0.2,0,0.3,0.2,0.3,0.3
						c0,0.2-0.2,0.3-0.3,0.3c-0.7,0-1.1,0.2-1.1,0.2C100.4,205.7,100.3,205.7,100.2,205.6z"/>
				</g>
				<path class="st8" d="M112.9,213c0,0,0,0.1,0,0.1c-0.3,1.2-0.7,2.6-1.2,3.9c-1.8-1-2.2-3-2.2-4.4v-0.1l0.2,0L112.9,213z"/>
			</g>
			<g>
				<path class="st11" d="M103.7,235.1c0,0-1.8,6.3-14,5.9c-10.8-0.3-15.6-7-17.1-11.8c0.5-3,0.4-2.6,0.8-4.4c0.4-1.9,2.5-4.1,4.7-5
					C81.5,222.9,95.3,234.9,103.7,235.1z"/>
				<path class="st16" d="M90.4,218.6c0,0-3.6-4.3-9.5-2.5c-3.9,1.2-8.1,10.4-4.8,15c3.3,4.7,14.3,10.3,23.2,7
					c7.5-2.8,6.8-11.1,6.8-11.1c-0.4-1.7-1.7-3-4.3-3.5C101.8,223.6,92.7,222.7,90.4,218.6z"/>
			</g>
			<g>
				<path class="st16" d="M114.8,231.3c0,0,21.3,23.4,27.2,23.8l-3.4,10c0,0-18.3-4.8-24.4-13.6
					C108.3,242.8,114.8,231.3,114.8,231.3z"/>
				<path class="st16" d="M156.7,237c0,0-5.1,22.7-10.4,26.6c-5.4,4-9.4,0.5-9.4,0.5s-0.9-5.1,2.4-9.8c0.2-0.3,0.4-0.6,0.6-0.8
					c0.4-0.4,0.7-0.9,1.2-1.3c5.4-5.2,8.3-15.4,8.3-15.4C151.5,237.4,154.4,237.7,156.7,237z"/>
				<g>
					<g>
						<polygon class="st4" points="144.3,209.8 145.3,210.4 145.4,210.5 145.6,209.2 145.6,209.2 145.6,209.2 						"/>
						<path class="st5" d="M145.4,209.6l-1.1,20.4c0,0.2,0.1,0.4,0.2,0.5l9,5.8c0.4,0.2,0.8,0,0.8-0.4l1-20.2c0-0.2-0.1-0.4-0.2-0.6
							c0-0.1-0.1-0.1-0.2-0.1l-8.9-5.8c-0.2-0.1-0.4-0.1-0.6,0c0,0,0,0,0,0C145.5,209.3,145.4,209.4,145.4,209.6z"/>
						<polygon class="st4" points="154,236.4 152.5,236.8 152.6,235.4 						"/>
						<path class="st6" d="M144.3,209.8l1,0.6l0,0.6l8,5.2l2-1c0-0.1-0.1-0.1-0.2-0.1l-8.9-5.8c-0.2-0.1-0.4-0.1-0.6,0c0,0,0,0,0,0
							L144.3,209.8z"/>
					</g>
					<path class="st7" d="M143.9,210.4l-1,20c0,0.3,0.1,0.5,0.3,0.6l8.7,5.6c0.5,0.3,1.1,0,1.1-0.6l1-19.9c0-0.3-0.1-0.5-0.3-0.6
						l-8.7-5.7C144.6,209.5,143.9,209.9,143.9,210.4z"/>
					<g>
						<path class="st8" d="M144.9,211.8l-0.9,18.2c0,0.1,0.1,0.3,0.2,0.3l7.2,4.6c0.1,0.1,0.2,0.1,0.3,0.1c0.2,0,0.3-0.2,0.3-0.4
							l0.9-18.2c0-0.1-0.1-0.3-0.2-0.3l-3.8-2.5l-3.4-2.2c0,0,0,0-0.1,0C145.2,211.4,145,211.6,144.9,211.8z"/>
					</g>
					<path class="st7" d="M151.1,215.1l-0.1,1c0,0.1-0.2,0.2-0.3,0.1l-3.8-2.5c-0.1,0-0.1-0.1-0.1-0.2l0.1-1.2L151.1,215.1z"/>
				</g>
				<path class="st15" d="M149.1,236.6c0,0-1.6-1.8-1.8-4c-0.2-2.2-1.3-6.1,0-6.6c1.3-0.5,1.2,3.1,2.7,4.2s5-3.1,5-5.1
					c0-1.6,0.2-4.3,0.2-4.3s4.1,1.3,4.9,5.9c0.8,4.6-3.3,10.4-3.3,10.4S151.4,239.4,149.1,236.6z"/>
				<g>
					<path class="st11" d="M141.9,256.7c-0.1,0.1-0.2,0.1-0.3,0.1c-0.2,0-0.3-0.1-0.4-0.2c-0.6-0.8-1.3-1.6-1.9-2.2
						c0.2-0.3,0.4-0.6,0.6-0.8c0.7,0.7,1.4,1.5,2.1,2.4C142.2,256.2,142.1,256.5,141.9,256.7z"/>
				</g>
			</g>
			<g>
				<path class="st14" d="M138.9,233c0,0-4.6,7.4-10.5,12.2c-3.1-2.9-6.2-6.1-8.6-8.6c4.3-2,10.1-5.2,14.5-9.2L138.9,233z"/>
				<path class="st15" d="M146.5,230.3c-1,0.6-2,1.1-2.8,1.6c-1.8,1.2-4.2,1.1-4.2,1.1c-3.6,0-5.2-5.7-5.2-5.7s1.9-6.9,5.9-9.2
					c1.1-0.6,2.4-0.9,3.4-1l-0.4,8.1c0,0,0,0.1,0,0.1c0,0.2,0,0.5,0,0.7l0,0c0,1.1,0.1,1.9,0.8,2.1c1.8,0.5,4.5-1.9,4.9-0.5
					C149.1,228.5,147.9,229.4,146.5,230.3z"/>
			</g>
		</g>
	</g>
	<g>
		<ellipse class="st2" cx="354.2" cy="377.7" rx="15.9" ry="4.5"/>
		<g>
			<path class="st7" d="M370,353l-6.7,22.3c-0.3,1.1-1,2-2.1,2.5c-5.1,2.5-10.1,2.5-15.1,0c-1-0.5-1.8-1.4-2.1-2.5l-6.8-22.1
				l16.4-2.5L370,353z"/>
			<ellipse class="st6" cx="353.7" cy="351.8" rx="16.4" ry="8.7"/>
			<path class="st5" d="M365.1,351.8c0,2.8-5.1,5.1-11.4,5.1c-6.3,0-11.4-2.3-11.4-5.1c0-2.8,5.1-5.1,11.4-5.1
				C360,346.7,365.1,349,365.1,351.8z"/>
			<path class="st11" d="M375.5,316.6c-6.9-1.8-17.4,12.5-20.6,26.5v-20.3c1.6-2.9,4.7-7.1,10.2-11.7c8.7-7.1,16.6-16.1,9.7-17.9
				c-6.5-1.7-16.2,10.8-20,23.9v-26.1c1.1-1.7,2.9-4,5.9-6.4c5.5-4.4,10.5-10.2,6.1-11.3c-3.8-1-9.3,5.7-12,13.2V278
				c0.4-2.6,1.1-6.4,2.8-10.2c4-8.9,6.2-18,0.9-17.3c-5.3,0.7-8.7,16.5-5.8,28.6v4.4c-2-8.9-8.7-18-13.1-16.9
				c-4.4,1.1,0.7,6.9,6.1,11.3c4.2,3.4,6.1,6.6,6.9,8.3v20.6c-3.1-14-13.8-28.5-20.7-26.7c-6.9,1.8,1.1,10.9,9.7,17.9
				c6.5,5.3,9.6,10.3,11,13v24.7c-3.4-13.8-13.7-27.7-20.5-25.9c-6.9,1.8-1,8.4,8.7,16.4c6.6,5.4,10.2,11.2,11.7,14.3v11.6
				c0.8,0.2,1.5,0.2,2.1,0v-4.6c1.4-2.7,4.4-7.7,10.9-12.9C374.5,327.4,382.4,318.4,375.5,316.6z"/>
		</g>
	</g>
	<g>
		<g>
			<g>
				<polygon class="st14" points="343.9,133.2 340.4,140.9 340.4,135.2 				"/>
				<polygon class="st13" points="340.4,140.9 338.7,139.9 338.7,136.2 340.4,135.2 				"/>
			</g>
			<polygon class="st13" points="323.1,114.7 323.1,140.2 327.5,142.7 327.1,117.1 			"/>
			<polygon class="st14" points="349.9,103.9 349.9,129.8 327.5,142.7 327.1,117.1 			"/>
			<g>
				<path class="st8" d="M344.4,118.1c0,1.1-0.3,2.4-1,3.7l-4.6,8.6l-4.8-2.8c-0.7-0.4-1.1-1.3-1.1-2.4c0-1.1,0.3-2.4,1-3.7
					c1.3-2.4,3.2-3.3,4.7-1.6c1.4-3.5,3.4-5,4.7-4.3C344,116.1,344.4,117,344.4,118.1z"/>
			</g>
			<polygon class="st11" points="323.1,114.7 345.9,101.6 349.9,103.9 327.1,117.1 			"/>
		</g>
		<g>
			<g>
				<g>
					<g>
						<path class="st14" d="M263.3,71.1c0,2.9-1.1,6.1-2.7,9c-1.6,2.9-3.9,5.3-6.3,6.8l-64.1,37.4c-4.9,2.8-8.8,0.4-8.8-5.4
							c0-1.2,0.2-2.5,0.6-3.8c0.5-1.8,1.2-3.5,2.2-5.2c1.2-2.1,2.8-4,4.5-5.5c0.7-17.1,12.5-37.2,26.7-45.5c9.3-5.4,17.4-4.4,22,1.5
							c1.3-1.3,2.7-2.3,4.2-3.2c0.4-0.3,0.9-0.5,1.3-0.7c6.9-3.3,12.3,0.5,12.2,9c0,0,0,0,0,0C259.6,63,263.4,65.5,263.3,71.1z"/>
					</g>
					<path class="st14" d="M265,64.7l-4.6-0.4l-1.2,1.9c0,0,0.8,0.7,2.4,0.1C263.2,65.6,265,64.7,265,64.7z"/>
					<path class="st14" d="M248,55.3l6.8,0.2l-3.1,2.3C251.7,57.9,248.8,57.2,248,55.3z"/>
				</g>
				<path class="st14" d="M185.8,125.4l6.4,0.2l-2.2-1.9C190,123.7,186,124.5,185.8,125.4z"/>
			</g>
			<g>
				<path class="st11" d="M269.8,71.3c0,2.9-1.1,6.1-2.7,9c-1.6,2.9-3.9,5.3-6.3,6.8l-64.1,37.4c-4.9,2.8-8.8,0.4-8.8-5.4
					c0-1.2,0.2-2.5,0.6-3.8c0.5-1.8,1.2-3.5,2.2-5.2c1.2-2.1,2.8-4,4.5-5.5c0.7-17.1,12.5-37.2,26.7-45.5c9.3-5.4,17.4-4.4,22,1.5
					c1.3-1.3,2.7-2.3,4.2-3.2c0.4-0.3,0.9-0.5,1.3-0.7c6.9-3.3,12.3,0.5,12.2,9c0,0,0,0,0,0C266.1,63.2,269.9,65.6,269.8,71.3z"/>
			</g>
			<path class="st8" d="M240.3,71.1l-4.4-2.7l0,0l-3.5-2.2l-0.4,0.7l-2.1,3.7l-1.1,1.9l-4.6,8c-1,1.7-1,3.6-0.1,4.2
				c1,0.6,2.6-0.3,3.6-2.1l2-3.5l-0.2,14.6c0,1.7,1.1,2.3,2.5,1.5c1.4-0.8,2.5-2.8,2.6-4.5l0.2-14.6l1.9,1.2
				c0.5,0.3,1.1,0.2,1.8-0.2c0.6-0.4,1.3-1,1.8-1.9C241.3,73.6,241.3,71.7,240.3,71.1z"/>
		</g>
		<g>
			<g>
				<g>
					<polygon class="st14" points="149.1,195.5 152.6,203.2 152.6,197.6 					"/>
					<polygon class="st13" points="152.6,203.2 154.3,202.2 154.3,198.6 152.6,197.6 					"/>
				</g>
				<polygon class="st13" points="168.9,176.4 168.9,201.9 164.5,204.4 164.8,178.8 				"/>
				<polygon class="st14" points="142,165.6 142,191.5 164.5,204.4 164.8,178.8 				"/>
				<polygon class="st11" points="168.9,176.4 146.1,163.3 142,165.6 164.8,178.8 				"/>
			</g>
			<g>
				<g>
					<path class="st8" d="M146,180.6c-0.1,3.9,3.2,9.2,7.3,11.6c4.1,2.4,7.5,1.2,7.5-2.7c0.1-3.9-3.2-9.2-7.3-11.6
						C149.5,175.4,146.1,176.6,146,180.6z M150.2,185.7c-0.2-0.9-0.4-1.8-0.4-2.7l3.4,2l0,2.5L150.2,185.7z M151.8,190.6
						c-1.9-1.5-3.5-3.7-4.4-5.9l2.3,1.4c0.3,1,0.7,2.1,1.3,3.1C151.2,189.6,151.5,190.1,151.8,190.6z M153.1,188.1l-0.1,3.4
						c-0.2-0.3-0.9-1.1-1.6-2.4c-0.4-0.8-0.8-1.7-1.1-2.6L153.1,188.1z M150.6,179.8c0.8-1.2,2-1.6,2.4-1.6c0.1,0,0.2,0.1,0.3,0.1
						l0,3.1L150.6,179.8z M147.7,178.1c1-0.9,2.5-1,4.2-0.4c-0.3,0.1-0.7,0.3-1,0.6c-0.4,0.3-0.8,0.7-1,1.2L147.7,178.1z
						 M149.8,182.4c0-0.8,0.2-1.6,0.6-2.2l2.8,1.7l0,2.5L149.8,182.4z M146.6,180.5c0.1-0.8,0.3-1.5,0.7-2.1l2.3,1.4
						c-0.3,0.6-0.5,1.4-0.5,2.2L146.6,180.5z M149.2,182.6c0,0.9,0.1,1.8,0.3,2.7l-2.4-1.4c-0.4-1-0.5-2-0.5-2.9L149.2,182.6z
						 M157.6,187.7l2.6,1.6c0,0.9-0.2,1.6-0.6,2.2l-2.4-1.5C157.5,189.3,157.6,188.5,157.6,187.7z M153.8,181.7l0-3.1
						c0.1,0,0.1,0.1,0.2,0.1c0.3,0.4,0.9,1.3,1.5,2.5c0.3,0.6,0.6,1.3,0.8,1.9L153.8,181.7z M156.6,183.9c0.3,1,0.5,1.9,0.5,2.8
						l-3.3-2l0-2.5L156.6,183.9z M157,183.6c-0.3-0.8-0.6-1.6-1-2.4c-0.3-0.6-0.6-1.2-0.9-1.7c1.7,1.4,3.3,3.4,4.2,5.4L157,183.6z
						 M157,187.3c0,0.9-0.2,1.6-0.4,2.3l-2.9-1.7l0-2.5L157,187.3z M157.6,187.1c0-0.9-0.2-1.8-0.4-2.8l2.4,1.4c0.4,1,0.6,2,0.7,2.9
						L157.6,187.1z M159.3,191.8c-1,1.1-2.7,1.3-4.6,0.5c0.3-0.1,0.6-0.2,0.9-0.4c0.6-0.3,1-0.8,1.3-1.5L159.3,191.8z M156.4,190
						c-0.9,1.6-2.3,1.7-2.7,1.7l0.1-3.3L156.4,190z"/>
				</g>
			</g>
		</g>
	</g>
	<g>
		
			<ellipse transform="matrix(0.9359 -0.3521 0.3521 0.9359 -130.8154 133.5127)" class="st2" cx="301.6" cy="426.4" rx="45" ry="20.4"/>
		<g>
			<polygon class="st9" points="334.4,376.6 293.9,400 266.9,384.4 307.2,360.9 			"/>
			<g>
				<defs>
					<polygon id="SVGID_1_" points="273.9,384.4 293.9,396 327.4,376.6 328,352.2 308.8,342 273,360.8 					"/>
				</defs>
				<clipPath id="SVGID_2_">
					<use xlink:href="#SVGID_1_"  style="overflow:visible;"/>
				</clipPath>
				<polygon class="st18" points="327.4,376.6 307.2,365 273.9,384.4 293.9,396 				"/>
				<g class="st19">
					<g>
						<path class="st14" d="M311.4,348.9v26.2c0,0.4-0.2,0.7-0.5,0.9l-15.3,8.7l-14.5,8.3c-0.2,0.1-0.4,0.2-0.6,0.1
							c-0.5-0.1-0.9-0.5-0.9-1v-26c0-0.4,0.2-0.7,0.5-0.9l29.8-17.2C310.5,347.7,311.4,348.2,311.4,348.9z"/>
						<path class="st12" d="M303.5,368.6c-0.2,3.2-2.7,5.7-5.7,5.7c-3,0-5.2-2.7-5.1-5.8c0.2-3.2,2.7-5.7,5.7-5.7
							C301.5,362.8,303.7,365.4,303.5,368.6z"/>
						<g>
							<path class="st4" d="M311.4,368.2v7c0,0.4-0.2,0.7-0.5,0.9l-15.3,8.7l5.5-16.7l2.5-7.2l5.2,4.9L311.4,368.2z"/>
							<polygon class="st8" points="308.8,365.8 307.8,367.8 304.9,367.2 303.8,369.1 301.1,368 303.6,360.9 							"/>
							<path class="st7" d="M305.7,379l-10.1,5.8l-14.5,8.3c-0.2,0.1-0.4,0.2-0.6,0.1l6.9-20l3-8.7l6.3,6L305.7,379z"/>
							<polygon class="st8" points="296.7,370.5 295.4,372.8 292,372.1 290.6,374.5 287.4,373.1 290.4,364.5 							"/>
						</g>
					</g>
				</g>
				<g class="st19">
					<g>
						<path class="st11" d="M323.1,355.1v26.2c0,0.4-0.2,0.7-0.5,0.9l-15.3,8.7l-14.5,8.3c-0.2,0.1-0.4,0.2-0.6,0.1
							c-0.5-0.1-0.9-0.5-0.9-1v-26c0-0.4,0.2-0.7,0.5-0.9l29.8-17.2C322.3,353.8,323.1,354.3,323.1,355.1z"/>
						<path class="st12" d="M315.3,374.7c-0.2,3.2-2.7,5.7-5.7,5.7c-3,0-5.2-2.7-5.1-5.8c0.2-3.2,2.7-5.7,5.7-5.7
							C313.2,368.9,315.5,371.5,315.3,374.7z"/>
						<g>
							<path class="st4" d="M323.1,374.3v7c0,0.4-0.2,0.7-0.5,0.9l-15.3,8.7l5.5-16.7l2.5-7.2l5.2,4.9L323.1,374.3z"/>
							<polygon class="st8" points="320.6,371.9 319.5,373.9 316.7,373.3 315.5,375.3 312.9,374.2 315.3,367 							"/>
							<path class="st7" d="M317.5,385.1l-10.1,5.8l-14.5,8.3c-0.2,0.1-0.4,0.2-0.6,0.1l6.9-20l3-8.7l6.3,6L317.5,385.1z"/>
							<polygon class="st8" points="308.4,376.6 307.1,379 303.7,378.3 302.4,380.6 299.1,379.3 302.1,370.6 							"/>
						</g>
					</g>
				</g>
			</g>
			<polygon class="st7" points="334.4,376.6 334.4,423.4 293.9,446.8 293.9,400 			"/>
			<g>
				<path class="st9" d="M315.8,397.1c-7.2,4.3-13,13.5-12.9,20.5c0.1,7,6.1,9.1,13.3,4.8c7.2-4.3,13-13.5,12.9-20.5
					C329,395,323,392.8,315.8,397.1z M316.6,414.1l-0.1-4.4l5.9-3.5c0,1.6-0.2,3.2-0.6,4.8L316.6,414.1z M320.4,417
					c0.9-1.8,1.7-3.6,2.2-5.4l4-2.4c-1.6,3.9-4.4,7.6-7.8,10.3C319.4,418.7,319.9,417.8,320.4,417z M321.5,412.2
					c-0.5,1.5-1.1,3.1-1.9,4.5c-1.2,2.3-2.5,3.8-2.9,4.3l-0.1-5.9L321.5,412.2z M316.4,403.2l-0.1-5.4c0.2-0.1,0.3-0.2,0.5-0.3
					c0.7,0.1,2.7,0.8,4.2,2.9L316.4,403.2z M322.2,399.8c-0.5-0.8-1.1-1.5-1.8-2c-0.5-0.4-1.1-0.7-1.7-1c3-1.1,5.7-0.9,7.4,0.7
					L322.2,399.8z M316.5,408.7l-0.1-4.4l5-3c0.6,1.1,0.9,2.4,1,3.9L316.5,408.7z M323.5,404.5c-0.1-1.5-0.4-2.8-0.9-3.9l4.1-2.5
					c0.7,1,1.2,2.2,1.3,3.7L323.5,404.5z M328,402.8c0,1.6-0.3,3.2-0.9,5l-4.2,2.5c0.4-1.6,0.6-3.2,0.6-4.8L328,402.8z M309.4,418.5
					L305,421c-0.7-1-1-2.3-1.1-3.8l4.7-2.8C308.7,416,308.9,417.3,309.4,418.5z M310.9,406.5c0.4-1.1,0.9-2.2,1.4-3.4
					c1.1-2.2,2.2-3.8,2.6-4.5c0.1-0.1,0.2-0.1,0.3-0.2l0.1,5.4L310.9,406.5z M315.4,404.9l0.1,4.4l-5.8,3.5c0-1.5,0.3-3.2,0.8-5
					L315.4,404.9z M305.7,409.6c1.7-3.6,4.3-7.1,7.4-9.6c-0.6,1-1.2,2-1.7,3c-0.7,1.4-1.3,2.8-1.7,4.2L305.7,409.6z M315.5,410.3
					l0.1,4.4l-5.1,3.1c-0.4-1.1-0.7-2.5-0.8-4L315.5,410.3z M304,416.2c0.1-1.6,0.5-3.4,1.2-5.2l4.2-2.5c-0.5,1.7-0.7,3.4-0.8,4.9
					L304,416.2z M309.7,419.3c0.6,1.2,1.4,2.1,2.3,2.7c0.5,0.3,1.1,0.5,1.6,0.7c-3.4,1.3-6.3,1-8.1-0.9L309.7,419.3z M315.6,415.8
					l0.1,5.9c-0.8,0-3.3-0.2-4.8-3L315.6,415.8z"/>
			</g>
			<polygon class="st6" points="293.9,446.8 266.9,430.9 266.9,384.4 293.9,400 			"/>
		</g>
	</g>
</g>
<g id="DESIGNED_BY_FREEPIK" class="st0">
	<g class="st20">
		<g id="XMLID_1_">
			<g id="XMLID_20_">
				<path id="XMLID_28_" class="st21" d="M260.1,465.5c-0.4,0.4-0.8,0.9-1.1,1.5l-0.5-0.2c-0.1-0.3-0.3-0.5-0.7-0.5
					c-0.3,0-0.6,0.3-0.5,0.7c0,0.3,0.3,0.6,0.7,0.5c0.1,0,0.1,0,0.2-0.1l0.5,0.2c-0.3,0.6-0.4,1.1-0.5,1.7l0.7,0.1
					c0.2-1.3,0.8-2.5,1.8-3.5L260.1,465.5z"/>
				<path id="XMLID_27_" class="st21" d="M265.6,463.2c-0.2,0-0.3,0-0.5,0l-0.1-0.6c0.2-0.1,0.3-0.4,0.3-0.6c0-0.4-0.4-0.7-0.8-0.6
					c-0.4,0-0.7,0.4-0.6,0.8c0,0.3,0.2,0.5,0.4,0.6l0.1,0.6c-0.7,0.1-1.4,0.3-2.1,0.6l0.3,0.7c0.9-0.4,1.9-0.7,3-0.7
					c0.5,0,1,0.1,1.5,0.2l0.2-0.7C266.7,463.2,266.1,463.2,265.6,463.2z"/>
				<path id="XMLID_26_" class="st21" d="M272.2,465.7c0.3,0,0.6-0.3,0.5-0.7c0-0.3-0.3-0.6-0.7-0.5c-0.3,0-0.5,0.3-0.5,0.6
					l-0.4,0.4c-0.4-0.4-0.9-0.8-1.4-1.1l-0.4,0.6c1.1,0.7,2,1.7,2.6,2.9l0.7-0.3c-0.3-0.6-0.6-1.1-0.9-1.5l0.4-0.4
					C272.1,465.7,272.1,465.7,272.2,465.7z"/>
				<path id="XMLID_25_" class="st21" d="M265,473.4c-0.4,0-0.8,0-1.2,0c-0.9,0-1.7-0.1-2.5-0.2c-0.4-0.1-0.8-0.2-1.3-0.3
					c1,1.9,3.1,3.1,5.4,3.1c2.9,0,5.3-1.9,5.9-4.5c-0.7,0.4-1.5,0.8-2.5,1.1C267.8,473,266.5,473.3,265,473.4z"/>
				<path id="XMLID_21_" class="st21" d="M265.6,464.7c-3.4,0-6.1,2.7-6.1,5.9c0,0.4,0,0.8,0.1,1.3c0.7,0.5,2.7,0.9,5.3,0.7
					c2.9-0.2,5.3-1,6.7-2.2c0-0.2,0-0.4,0-0.6C271.2,466.9,268.7,464.7,265.6,464.7z M263.4,471.2c-1,0-1.8-0.8-1.8-1.8
					c0-1,0.8-1.8,1.8-1.8c1,0,1.8,0.8,1.8,1.8C265.3,470.4,264.5,471.2,263.4,471.2z M268.2,470.3c-0.8,0-1.4-0.6-1.4-1.4
					s0.6-1.4,1.4-1.4c0.8,0,1.4,0.6,1.4,1.4S268.9,470.3,268.2,470.3z"/>
			</g>
			<path id="XMLID_18_" class="st21" d="M281.6,466.5c-0.3-0.1-0.8-0.3-1.4-0.2c-0.6,0.1-0.8,0.3-0.8,1v0.9h2.2v1.7h-2.2v5.5h-1.9
				v-5.5h-1.3v-1.7h1.3v-0.9c0-1.7,0.9-2.8,2.6-2.8c0.6,0,1.2,0.1,1.6,0.3L281.6,466.5z"/>
			<path id="XMLID_16_" class="st21" d="M286.3,469.9c-0.2,0-0.4,0-0.5,0c-0.9,0-1.5,0.5-1.5,1.6v3.9h-1.9v-7.2h1.9v0.8
				c0.5-0.7,1.1-1,2-1c0.4,0,0.8,0.1,1.1,0.3L286.3,469.9z"/>
			<path id="XMLID_13_" class="st21" d="M294,471.8c0,0.2,0,0.5,0,0.7h-5.1c0.2,1,0.9,1.5,1.8,1.5c0.6,0,1.3-0.3,1.8-0.7l1.1,1.2
				c-0.8,0.7-1.9,1.1-3.1,1.1c-2.2,0-3.7-1.5-3.7-3.8c0-2.3,1.5-3.8,3.6-3.8C292.5,468,294,469.5,294,471.8z M288.9,471.1h3.2
				c-0.2-0.9-0.7-1.4-1.6-1.4C289.6,469.7,289,470.2,288.9,471.1z"/>
			<path id="XMLID_10_" class="st21" d="M301.6,471.8c0,0.2,0,0.5,0,0.7h-5.1c0.2,1,0.9,1.5,1.8,1.5c0.6,0,1.3-0.3,1.8-0.7l1.1,1.2
				c-0.8,0.7-1.9,1.1-3.1,1.1c-2.2,0-3.7-1.5-3.7-3.8c0-2.3,1.5-3.8,3.6-3.8C300.2,468,301.6,469.5,301.6,471.8z M296.5,471.1h3.2
				c-0.2-0.9-0.7-1.4-1.6-1.4C297.2,469.7,296.7,470.2,296.5,471.1z"/>
			<path id="XMLID_7_" class="st21" d="M310,471.8c0,2.2-1.5,3.8-3.5,3.8c-1,0-1.6-0.4-2.1-0.9v3.7h-1.9v-10.1h1.9v0.8
				c0.5-0.6,1.2-1,2.1-1C308.5,468,310,469.6,310,471.8z M304.3,471.8c0,1.1,0.7,2,1.8,2c1.1,0,1.9-0.9,1.9-2c0-1.1-0.7-2-1.9-2
				C305,469.8,304.3,470.6,304.3,471.8z"/>
			<path id="XMLID_4_" class="st21" d="M313.1,465.8c0,0.7-0.5,1.2-1.2,1.2c-0.7,0-1.2-0.5-1.2-1.2c0-0.7,0.5-1.2,1.2-1.2
				C312.5,464.6,313.1,465.1,313.1,465.8z M312.8,475.4h-1.9v-7.2h1.9V475.4z"/>
			<path id="XMLID_2_" class="st21" d="M316,470.7l2.7-2.6h2.4l-3.5,3.4l3.5,3.8h-2.4l-2.7-2.9v2.9h-1.9v-10.7h1.9V470.7z"/>
		</g>
		<g>
			<path class="st21" d="M184.4,475.3v-1.1c-0.5,0.7-1.4,1.2-2.4,1.2c-1.8,0-3.1-1.4-3.1-3.7c0-2.3,1.3-3.7,3.1-3.7
				c1,0,1.8,0.5,2.4,1.2v-3.8h1.1v9.8H184.4z M184.4,473.4v-3.2c-0.4-0.6-1.2-1.1-2.1-1.1c-1.4,0-2.3,1.2-2.3,2.7
				c0,1.6,0.8,2.7,2.3,2.7C183.2,474.5,184,474,184.4,473.4z"/>
			<path class="st21" d="M186.9,471.7c0-2.1,1.5-3.7,3.5-3.7c2.1,0,3.4,1.7,3.4,3.8v0.3h-5.7c0.1,1.3,1,2.4,2.5,2.4
				c0.8,0,1.6-0.3,2.2-0.9l0.5,0.7c-0.7,0.7-1.7,1.1-2.8,1.1C188.4,475.5,186.9,474,186.9,471.7z M190.4,468.9
				c-1.5,0-2.3,1.3-2.3,2.4h4.6C192.7,470.3,192,468.9,190.4,468.9z"/>
			<path class="st21" d="M194.6,474.4l0.6-0.8c0.5,0.5,1.4,1,2.3,1c1.1,0,1.7-0.5,1.7-1.2c0-1.7-4.4-0.7-4.4-3.3c0-1.1,1-2,2.6-2
				c1.2,0,2.1,0.5,2.6,1l-0.5,0.8c-0.4-0.5-1.2-0.9-2.1-0.9c-1,0-1.6,0.5-1.6,1.1c0,1.6,4.4,0.5,4.4,3.3c0,1.2-1,2.1-2.8,2.1
				C196.3,475.5,195.3,475.1,194.6,474.4z"/>
			<path class="st21" d="M201.5,466.5c0-0.4,0.3-0.7,0.7-0.7c0.4,0,0.7,0.3,0.7,0.7c0,0.4-0.3,0.7-0.7,0.7
				C201.8,467.2,201.5,466.9,201.5,466.5z M201.7,475.3v-7.1h1.1v7.1H201.7z"/>
			<path class="st21" d="M204.6,477.1l0.6-0.8c0.6,0.7,1.3,1,2.3,1c1.2,0,2.3-0.6,2.3-2.1v-1c-0.5,0.7-1.4,1.3-2.4,1.3
				c-1.8,0-3.1-1.4-3.1-3.7c0-2.3,1.3-3.7,3.1-3.7c1,0,1.8,0.5,2.4,1.2v-1.1h1.1v6.9c0,2.3-1.6,3.1-3.4,3.1
				C206.2,478.2,205.4,477.9,204.6,477.1z M209.7,473.3v-3.1c-0.4-0.6-1.2-1.1-2.1-1.1c-1.4,0-2.3,1.1-2.3,2.7
				c0,1.6,0.8,2.7,2.3,2.7C208.5,474.4,209.3,473.9,209.7,473.3z"/>
			<path class="st21" d="M217.4,475.3v-4.6c0-1.2-0.6-1.6-1.6-1.6c-0.9,0-1.7,0.5-2.1,1.1v5.2h-1.1v-7.1h1.1v1
				c0.5-0.6,1.5-1.2,2.5-1.2c1.5,0,2.3,0.7,2.3,2.3v5H217.4z"/>
			<path class="st21" d="M219.9,471.7c0-2.1,1.5-3.7,3.5-3.7c2.1,0,3.4,1.7,3.4,3.8v0.3h-5.7c0.1,1.3,1,2.4,2.5,2.4
				c0.8,0,1.6-0.3,2.2-0.9l0.5,0.7c-0.7,0.7-1.7,1.1-2.8,1.1C221.4,475.5,219.9,474,219.9,471.7z M223.4,468.9
				c-1.5,0-2.3,1.3-2.3,2.4h4.6C225.7,470.3,225,468.9,223.4,468.9z"/>
			<path class="st21" d="M233.4,475.3v-1.1c-0.5,0.7-1.4,1.2-2.4,1.2c-1.8,0-3.1-1.4-3.1-3.7c0-2.3,1.3-3.7,3.1-3.7
				c1,0,1.8,0.5,2.4,1.2v-3.8h1.1v9.8H233.4z M233.4,473.4v-3.2c-0.4-0.6-1.2-1.1-2.1-1.1c-1.4,0-2.3,1.2-2.3,2.7
				c0,1.6,0.8,2.7,2.3,2.7C232.1,474.5,233,474,233.4,473.4z"/>
			<path class="st21" d="M239.7,475.3v-9.8h1.1v3.8c0.6-0.8,1.4-1.2,2.4-1.2c1.8,0,3.1,1.5,3.1,3.7c0,2.3-1.3,3.7-3.1,3.7
				c-1,0-1.9-0.5-2.4-1.2v1.1H239.7z M242.9,474.5c1.4,0,2.3-1.2,2.3-2.7c0-1.6-0.8-2.7-2.3-2.7c-0.9,0-1.7,0.5-2.1,1.1v3.2
				C241.2,474,242,474.5,242.9,474.5z"/>
			<path class="st21" d="M247.5,477.1c0.2,0.1,0.4,0.1,0.6,0.1c0.5,0,0.8-0.2,1.1-0.7l0.5-1.1l-3-7.1h1.2l2.4,5.8l2.3-5.8h1.2
				l-3.5,8.5c-0.4,1-1.1,1.4-2.1,1.4c-0.2,0-0.6,0-0.8-0.1L247.5,477.1z"/>
		</g>
	</g>
</g>
</svg>
