<?xml version="1.0" encoding="utf-8"?>
<!-- Generator: Adobe Illustrator 23.1.0, SVG Export Plug-In . SVG Version: 6.00 Build 0)  -->
<svg version="1.1" id="Layer_1" xmlns="http://www.w3.org/2000/svg" xmlns:xlink="http://www.w3.org/1999/xlink" x="0px" y="0px"
	 viewBox="0 0 640 720" style="enable-background:new 0 0 640 720;" xml:space="preserve">
<style type="text/css">
	.st0{clip-path:url(#SVGID_2_);}
	.st1{fill:#3C80FB;}
	.st2{clip-path:url(#SVGID_4_);}
	.st3{fill:#579DFF;}
</style>
<title>logo-mategram</title>
<g>
	<defs>
		<path id="SVGID_1_" d="M451.6,0C410.4,0,377,33.4,377,74.6s33.4,74.6,74.6,74.6s74.6-33.4,74.6-74.6C526.3,33.4,492.8,0,451.6,0
			 M377,577.8c0,31.4-25.5,56.9-56.9,56.8c-31.4,0-56.8-25.5-56.8-56.8V393.2c0-104,84.3-188.4,188.4-188.4S640,289.2,640,393.2
			v184.7c0,31.4-25.5,56.9-56.9,56.8c-31.4,0-56.8-25.5-56.8-56.8V393.2c0-41.2-33.4-74.6-74.6-74.6S377,352,377,393.2V577.8z"/>
	</defs>
	<clipPath id="SVGID_2_">
		<use xlink:href="#SVGID_1_"  style="overflow:visible;"/>
	</clipPath>
	<g class="st0">
		<rect x="263.3" class="st1" width="376.7" height="634.7"/>
	</g>
</g>
<g>
	<defs>
		<path id="SVGID_3_" d="M188.6,0C147.4,0,114,33.4,114,74.6s33.4,74.6,74.6,74.6s74.6-33.4,74.6-74.6C263.3,33.4,229.8,0,188.6,0
			 M114,577.8c0,31.4-25.5,56.9-56.9,56.9S0.3,609.2,0.3,577.8V393.2c0-104,84.3-188.4,188.4-188.4S377,289.2,377,393.2v184.7
			c0,31.4-25.5,56.9-56.9,56.8c-31.4,0-56.8-25.5-56.8-56.8V393.2c0-41.2-33.4-74.6-74.6-74.6c-41.2,0-74.6,33.4-74.6,74.6
			L114,577.8z"/>
	</defs>
	<clipPath id="SVGID_4_">
		<use xlink:href="#SVGID_3_"  style="overflow:visible;"/>
	</clipPath>
	<g class="st2">
		<rect x="0.3" class="st3" width="376.7" height="634.7"/>
	</g>
</g>
</svg>
